<?xml version="1.0" encoding="UTF-8"?>
<svg id="Layer_2" data-name="Layer 2" xmlns="http://www.w3.org/2000/svg" viewBox="0 0 158.0364709 306.86738158">
  <g id="Layer_1-2" data-name="Layer 1">
    <g>
      <path d="M57.85482207,239.0934113c1.07675211-5.1905129,8.488789-.99059734,12.24097997-1.20451862,24.48693427-1.396058,34.4673839-29.44847107,21.32219105-48.07721507-6.10142033-8.64664358-17.51421042-10.50750959-27.29077719-12.3798817-4.30634851-.82473603-5.1552241,1.53512727-6.06956285-4.40947906-1.4250474-9.26499696-1.06088264-34.19026436-.23336914-43.99090157.61138468-7.24092049,4.31295038-3.88463917,9.35070783-4.86906697,1.0908712-.21316706,5.31939242-1.4277413,6.41872404-1.81507542,1.34244354-.4729912,11.87942619-5.94442831,12.45017269-6.59316866,2.3642371-2.68731566,5.28017053-12.08660709,5.52544575-15.84992157.83220722-12.7687478-3.27670528-22.2304585-15.1338821-27.43847322-.54424353-.23904749-.6257639-1.26300287-1.1538407-1.38146701-4.57424167-1.02614541-11.8664872.28423408-16.6817047-.02635648l.00074091-53.15107614c6.94394832.42208711,14.46933244-.55729222,21.34062764-.00164813,21.60239034,1.74686725,47.94164754,12.74354038,60.70058717,30.98675623,21.79528116,31.16371974,15.71906817,79.07444929-19.65634256,97.64360659-2.13454995,1.12046173-5.53122484,1.00422645-6.9874348,3.10238082,12.3932607,4.49445612,24.71716942,12.48495668,32.3666609,23.40067186,14.52210071,20.72283048,15.18450839,53.62409769,3.70324664,75.93267534-16.31368027,31.69817141-55.42999422,44.69703868-89.63151945,40.68422022-.7535394-.08841175-2.58165112-.34102668-2.58165112-1.16086385v-49.4011976Z"/>
      <path d="M13.53274905,252.03975047c-.93216006,1.56458505-5.75735626,2.56651909-2.76056734,7.563215,1.23527955.34709487,2.30239234.11732596,3.34512122-.62848785,2.86211298-2.04713172,4.66308165-12.56936202,8.22801223-16.46841767,4.52687036-4.95115376,12.85582754-3.84121621,17.10284257.77245933,5.59863554,6.08198645,4.87594219,22.81196233-2.57501281,27.23454135-.94650739.56180767-2.98499305.06805972-2.97800879.77335141.02148817,2.16994106,2.57708597,1.54188898,3.69299059,2.29524829,9.41832182,6.35841116,3.40482634,21.78405579,5.74389699,31.41336172l-1.1967256,1.46461723-38.58139244.4077423c-1.16778201-.0009448-2.42682507-.42749861-2.96313054-1.52788742-.73590542-1.50992695-.63119409-17.1605843-.36199196-19.83020551.84443699-8.37410501,6.88883932-14.75073186,15.75075692-12.02579116,2.51454907.77319576,3.12030227,3.08604529,4.38951773,4.42784051,1.74047731,1.84000606,1.4481926-1.38914156,3.00141299-2.94347635,1.49361952-1.49469115,5.04050301-1.90310292,5.66202395-3.26725019.24487243-.53745905-.72969404-6.75622935-.16898349-9.22013037.60787732-2.67116344,8.22069842-6.34803703,3.98476399-9.60721674-5.42299141-4.17251585-7.19077511,7.52569128-8.68070685,10.91612696-2.1352027,4.85879132-3.88711652,7.46592872-9.52799237,8.42786421-18.10352785,3.08718474-19.13241866-31.70449215-2.66746729-32.63074259,3.08897892-.17377325,2.05317032,11.62654995,1.56064027,12.45323753ZM16.69100408,294.86077873c1.81948073-13.8916228-8.47500281-13.4522269-6.74418108-.00001401l6.74418108.00001401ZM32.28227407,284.50773926c-.55608514-.33376494-4.43653258-.33376382-4.99265008-.00000761-1.58470443.95106687-1.95307801,8.30984082-1.56180624,10.28960006,1.58238246.47056467,7.01050897.52502886,7.85156587-.63798356,1.03214975-1.42725537.02896421-8.85569312-1.29710955-9.65160889Z"/>
      <path d="M2.83985201,96.50359094c-.82317702-.25466681-1.23506433-1.72154634-1.16086501-2.58165207,1.73768899-11.94812165-2.03400504-28.97569282.24924349-40.24613712,3.38123738-16.69027572,31.14760051-16.7209806,36.95893503-.71022647,3.10389984,8.55152582,1.13701604,15.28562537,1.15437255,23.70268627.00946199,4.58860538,1.7100946,14.46324995.61910104,18.56404536-.22786762.85650231-1.93084247.79135823-2.06131229,1.57766793-.16287625.98161535,1.55722744,3.99492213.10530267,5.01675866l-27.25676737,2.91787183,26.17023041,14.65394415c.2059613,1.02807266-.85464979,1.61368387-1.54997644,2.10211119-1.98375869,1.39347736-23.6397609,10.85458632-23.11986753,12.0500103,1.98100427,2.1166625,5.3155011.74831495,7.86302976,1.11921845,5.81299405.84633387,11.49650149,2.27549075,17.20708215,3.01431929,3.37481953.43663038-.20272357,2.38690234-2.88888706,2.19810846-7.9814974-.56097028-16.39562158-3.14840972-24.09382177-4.41883725-2.67615827-.44164416-12.02475265,1.45965549-8.41187023-3.27062411l26.32628411-13.17530752.47468003-1.93155701L.9704262,101.75217996c7.17657493-2.47694935,15.14274661-2.71199047,22.74986415-3.08072582l13.17644789-2.16786319H2.83985201ZM3.9626065,58.70418975c-.61831145,3.27937786.44951383,8.10956211,0,11.60179641h33.30838323c1.90652733-3.51433567.65722496-11.01736896-.78362659-14.93242332-3.14545934-8.54678213-18.28088938-10.37649621-25.56214381-6.17382588-2.55036646,1.4720471-6.44699416,6.76973311-6.96261284,9.50445279ZM38.39374423,76.29401011H3.9626065v14.22155689h15.71856287v-11.9760479h1.49700599v10.85329341c0,.07939073,1.04336376,1.12275449,1.12275449,1.12275449h14.97005988c.07939073,0,1.12275449-1.04336376,1.12275449-1.12275449v-13.0988024Z"/>
      <path d="M36.45912851,233.79019166c-1.56604855,1.55078933-3.62701394,3.64875919-5.74625066,4.35875783-16.02699009,5.36945264-31.71546907-4.62376875-30.52514697-22.29086551,1.88823706-28.02574763,46.87868907-27.58372688,42.71645834,6.78776133-.54453528,4.49674447-3.45969559,8.18806994-6.44506072,11.14434635ZM14.73665183,225.68297821c6.34357194,4.72512376,17.74234266,1.31662304,17.72767248-7.54922605-.02218134-13.40518426-19.84576821-13.41950117-21.75364234-1.425878-.42585435,2.67708261,1.84375363,7.34964102,4.02596985,8.97510406Z"/>
      <path d="M12.43611361,193.32813195c-.18257649.06334542-.25438454.92705827-.85791827,1.13628585-10.88057218,3.77197761-13.1320775,6.14492351-10.67912251-8.58427438l27.75956463-10.02680366-27.37525003-8.93100728c-1.49940446-1.20340257-1.3417977-7.38663389-1.0994-9.45152928.35235063-3.00154323,1.14955715-2.83144502,3.78453998-2.23311949,6.2080793,1.4096685,17.82290688,6.18248111,24.34931208,8.602291,3.46822072,1.28591998,10.20773536,3.34577758,13.0233972,4.94067437,2.38158678,1.34902035,2.02449154,14.05364926.81254198,14.94105939-8.58500623,2.80292373-17.07180748,5.88833352-25.61216691,8.8208044-1.3539532.46490178-2.76120595.31921314-4.10549816.78561908Z"/>
      <path d="M38.98184053,5.03652683c-1.0634554,1.84237968-13.27247291,4.77828231-14.4270834,6.89452154-.83077226,1.52268913-.69425747,10.83173256.31445347,12.39348097,1.14574703,1.77391612,9.2682822,4.26141922,11.69615145,5.51938276,3.33411014,1.72751848,1.72194559,3.12975202-1.00149772,2.54063354-5.07756972-1.09834859-27.2687026-11.09035397-32.49469442-13.95343238-4.36122338-2.38931192-.81947807-3.62318878,1.99436192-5.03304263C12.38091679,9.73174868,26.82265686,2.99272053,34.32781459.75090306c1.09685683-.32763506,3.16300872-1.17428293,4.102139-.49276517.90671149.65799176,1.07669025,3.86919524.55188694,4.77838895ZM21.92667836,23.15029753v-10.47904192l-11.97528483,4.49906874c.41471419,1.5271453,11.50973355,6.49136705,11.97528483,5.97997318Z"/>
      <path d="M2.83985201,34.37784244h35.92814371c1.94195481,0,1.1450775,5.98802395-.74850299,5.98802395H2.83985201c-1.36651022,0-1.82110853-5.26252873,0-5.98802395Z"/>
    </g>
  </g>
</svg>